<?xml version="1.0" encoding="UTF-8" standalone="no"?>
<svg
   xmlns:dc="http://purl.org/dc/elements/1.1/"
   xmlns:cc="http://creativecommons.org/ns#"
   xmlns:rdf="http://www.w3.org/1999/02/22-rdf-syntax-ns#"
   xmlns:svg="http://www.w3.org/2000/svg"
   xmlns="http://www.w3.org/2000/svg"
   viewBox="0 0 841.88977 595.27557"
   id="svg2"
   height="595.27557"
   width="841.88977"
   version="1.1">
  <metadata
     id="metadata24">
    <rdf:RDF>
      <cc:Work
         rdf:about="">
        <dc:format>image/svg+xml</dc:format>
        <dc:type
           rdf:resource="http://purl.org/dc/dcmitype/StillImage" />
      </cc:Work>
    </rdf:RDF>
  </metadata>
  <defs
     id="defs22" />
  <g
     id="g4">
    <path
       id="path6"
       style="fill:#0086cc;fill-rule:evenodd"
       d="m 252.9716,182.9319 c 4.8643,21.3502 13.1228,40.3565 27.0726,57.9156 l -51.5313,0.1827 c -19.6543,-22.7703 -25.4245,-46.9789 -26.9318,-57.8911 16.8101,2e-4 34.5804,-0.207 51.3905,-0.2072 z" />
    <path
       id="path8"
       style="fill:#0086cc;fill-rule:evenodd"
       d="m 187.7498,182.9591 c 3.5976,22.1022 12.5522,40.6287 26.957,57.9102 l -50.5646,-2e-4 c -19.1302,-23.1204 -24.7067,-47.4579 -26.662,-58.0706 16.8101,2e-4 33.4594,0.1608 50.2696,0.1606 z" />
    <path
       id="path10"
       style="fill:#0086cc;fill-rule:evenodd"
       d="m 226.8668,300.5309 c 24.0252,-25.7027 39.99,-35.8105 64.8694,-46.4433 l -154.1605,-0.0297 -0.0182,46.473 89.3093,0 z" />
    <path
       id="path12"
       style="fill:#0086cc;fill-rule:evenodd"
       d="m 192.6287,361.573 c 6.7189,-19.472 12.7988,-31.1659 23.265,-46.2807 l -78.3555,-0.2445 0.0123,46.6508 55.0782,-0.1256 z" />
    <path
       id="path14"
       style="fill:#0086cc;fill-rule:evenodd"
       d="m 305.702,412.4051 c 1.1207,-21.5415 14.0843,-46.3122 49.2194,-51.0646 l 129.5592,0.9739 0.007,-46.5655 -134.7248,-0.4537 c -68.4515,5.5594 -90.8432,68.2922 -90.5351,97.1819 l 46.4741,-0.072 z" />
    <path
       id="path16"
       style="fill:#0086cc;fill-rule:evenodd"
       d="m 244.9629,412.0776 c 2.4072,-29.6275 11.0256,-55.105 31.4419,-75.9469 30.3275,-30.9589 67.4703,-36.1047 83.2816,-35.3687 l 125.6383,-0.5547 0,-46.3611 -132.0859,-0.017 c -40.6776,1.9837 -80.8523,20.4601 -109.1218,49.9825 -13.6768,14.2826 -24.5795,29.875 -31.6487,46.0017 -12.6557,28.872 -12.2933,52.1777 -13.0805,62.2239 l 45.5751,0.0403 z" />
    <path
       id="path18"
       style="fill:#0086cc;fill-rule:evenodd"
       d="m 491.6033,254.2222 92.9928,0 0,29.2273 -3.012,0 c -1.0039,-5.3955 -2.7137,-9.7878 -5.0742,-13.2038 -2.3884,-3.4162 -5.2375,-5.7748 -8.5207,-7.0763 -3.2832,-1.3017 -8.3308,-1.9522 -15.1143,-1.9522 l -19.7002,0 0,41.9432 14.2188,0 c 15.3858,0 26.5381,2.711 33.485,8.1066 6.9468,5.3952 10.3928,12.6072 10.3928,21.6086 0,6.1273 -1.7638,11.4415 -5.2642,15.888 -3.5274,4.4468 -7.9507,7.7544 -13.2966,9.9231 -5.3186,2.1689 -13.106,3.2536 -23.3089,3.2536 l -57.7983,0 0,-2.928 c 6.6751,-0.1086 10.9356,-1.0034 12.8351,-2.6842 1.8721,-1.6542 2.822,-5.2869 2.822,-10.8992 l 0,-73.7189 c 0,-6.1007 -0.9499,-10.0322 -2.8765,-11.8484 -1.8994,-1.7894 -6.1599,-2.6842 -12.7806,-2.6842 l 0,-2.9552 z m 41.5714,55.9332 0,32.4809 c 0,5.151 0.7054,8.7573 2.1438,10.8448 1.4376,2.0876 4.0698,3.145 7.9503,3.145 6.1867,0 10.8814,-2.0876 14.0291,-6.2898 3.1477,-4.1754 4.7215,-9.3812 4.7215,-15.644 0,-6.0462 -1.411,-11.1161 -4.2875,-15.2104 -2.8492,-4.094 -6.0508,-6.6967 -9.5786,-7.7541 -3.5275,-1.0574 -8.5206,-1.5724 -14.9786,-1.5724 z m 119.325,-55.9332 51.9098,0 0,2.9552 c -6.9466,0 -11.1797,0.7049 -12.6994,2.0876 -1.5467,1.4099 -2.3061,4.799 -2.3061,10.1403 l 0,76.0236 c 0,4.0126 0.2439,6.8051 0.7323,8.3775 0.5155,1.5453 1.6009,2.7926 3.2836,3.7145 1.6549,0.949 4.1243,1.4099 7.4353,1.4099 0.5694,0 1.7637,0.0271 3.5543,0.0815 l 0,2.928 -56.0345,0 0,-2.928 c 4.8845,-0.1086 8.195,-0.4884 9.9861,-1.1118 1.7637,-0.6505 3.0659,-1.7894 3.9341,-3.4162 0.8416,-1.6537 1.2483,-4.1209 1.2483,-7.4019 l 0,-34.7852 c -12.5905,6.5071 -23.9877,9.7608 -34.1633,9.7608 -5.6171,0 -10.4201,-0.8948 -14.3543,-2.7387 -3.9622,-1.8167 -6.7569,-4.4465 -8.4391,-7.8624 -1.6554,-3.4165 -2.4965,-8.4054 -2.4965,-14.9662 l 0,-25.1876 c 0,-6.0189 -1.0583,-9.8962 -3.1748,-11.6041 -2.1167,-1.6813 -5.9971,-2.5216 -11.6139,-2.5216 l 0,-2.9552 51.828,0 0,2.9552 c -3.5004,0 -6.2136,0.7322 -8.1675,2.1691 -1.981,1.4638 -2.9575,4.5005 -2.9575,9.1098 l 0,28.9019 c 0,3.2805 0.2711,5.7478 0.7866,7.4019 0.5429,1.6269 1.8455,3.0906 3.9076,4.3921 2.0622,1.3012 4.7486,1.9522 8.032,1.9522 6.6756,0 13.622,-1.8438 20.8127,-5.5583 l 0,-33.1312 c 0,-4.7719 -0.217,-7.9985 -0.651,-9.6797 -0.4611,-1.7079 -1.4928,-3.0362 -3.0664,-4.0665 -1.6012,-1.0034 -4.0432,-1.4913 -7.3264,-1.4913 l 0,-2.9552 z" />
  </g>
</svg>
